<?xml version="1.0" encoding="UTF-8"?>
<svg id="Layer_1" data-name="Layer 1" xmlns="http://www.w3.org/2000/svg" viewBox="0 0 505.29 66.26">
  <defs>
    <style>
      .cls-1 {
        letter-spacing: 0em;
      }

      .cls-2, .cls-3 {
        fill: #fff;
      }

      .cls-4 {
        letter-spacing: .06em;
      }

      .cls-5 {
        letter-spacing: .07em;
      }

      .cls-6 {
        letter-spacing: .07em;
      }

      .cls-3 {
        font-family: ArialMT, Arial;
        font-size: 11.63px;
      }

      .cls-7 {
        letter-spacing: .06em;
      }

      .cls-8 {
        letter-spacing: 0em;
      }

      .cls-9 {
        letter-spacing: .02em;
      }
    </style>
  </defs>
  <path class="cls-2" d="m.42.73h35.4v9.13H13.66v6.79h20.55v8.72H13.66v8.43h22.8v9.68H.42V.73Z"/>
  <path class="cls-2" d="m40.76,43.47V.73h22.01c4.08,0,7.2.35,9.36,1.05s3.9,2,5.22,3.89c1.32,1.9,1.98,4.2,1.98,6.92,0,2.37-.51,4.42-1.52,6.14s-2.4,3.12-4.17,4.18c-1.13.68-2.67,1.24-4.64,1.69,1.57.53,2.72,1.05,3.44,1.58.49.35,1.19,1.1,2.11,2.25.92,1.15,1.54,2.03,1.85,2.66l6.4,12.39h-14.92l-7.06-13.06c-.89-1.69-1.69-2.79-2.39-3.29-.95-.66-2.03-.99-3.24-.99h-1.17v17.35h-13.27Zm13.27-25.42h5.57c.6,0,1.77-.19,3.5-.58.87-.18,1.59-.62,2.14-1.34.55-.72.83-1.55.83-2.48,0-1.38-.44-2.44-1.31-3.18-.87-.74-2.52-1.11-4.93-1.11h-5.8v8.69Z"/>
  <path class="cls-2" d="m115.33,36.42h-14.99l-2.08,7.06h-13.49L100.83.73h14.41l16.06,42.74h-13.83l-2.14-7.06Zm-2.74-9.24l-4.72-15.37-4.67,15.37h9.39Z"/>
  <path class="cls-2" d="m142.13,29.33l12.57-.79c.27,2.04.83,3.6,1.66,4.67,1.36,1.73,3.3,2.59,5.83,2.59,1.88,0,3.34-.44,4.36-1.33,1.02-.88,1.53-1.91,1.53-3.08s-.49-2.1-1.46-2.97c-.97-.87-3.23-1.7-6.76-2.48-5.79-1.3-9.92-3.03-12.39-5.19-2.49-2.16-3.73-4.91-3.73-8.25,0-2.2.64-4.27,1.91-6.22,1.27-1.95,3.19-3.49,5.74-4.61,2.56-1.12,6.06-1.68,10.51-1.68,5.46,0,9.63,1.02,12.49,3.05,2.87,2.03,4.57,5.26,5.12,9.69l-12.45.73c-.33-1.92-1.03-3.32-2.08-4.2-1.06-.87-2.52-1.31-4.39-1.31-1.54,0-2.69.33-3.47.98-.78.65-1.17,1.44-1.17,2.38,0,.68.32,1.29.96,1.84.62.56,2.1,1.09,4.43,1.57,5.77,1.24,9.91,2.5,12.41,3.78,2.5,1.27,4.31,2.85,5.45,4.74s1.71,3.99,1.71,6.33c0,2.74-.76,5.27-2.27,7.58s-3.64,4.07-6.36,5.26c-2.72,1.2-6.15,1.79-10.29,1.79-7.27,0-12.3-1.4-15.1-4.2s-4.38-6.36-4.75-10.67Z"/>
  <path class="cls-2" d="m182.91,22.13c0-6.98,1.94-12.41,5.83-16.3s9.3-5.83,16.24-5.83,12.6,1.91,16.44,5.73c3.85,3.82,5.77,9.17,5.77,16.05,0,5-.84,9.09-2.52,12.29-1.68,3.2-4.11,5.69-7.29,7.46-3.18,1.78-7.14,2.67-11.88,2.67s-8.81-.77-11.97-2.3c-3.16-1.54-5.72-3.97-7.68-7.29-1.96-3.32-2.94-7.48-2.94-12.48Zm13.21.06c0,4.31.8,7.42,2.41,9.3s3.79,2.83,6.55,2.83,5.03-.92,6.59-2.77c1.55-1.85,2.33-5.16,2.33-9.94,0-4.02-.81-6.96-2.43-8.82-1.62-1.86-3.82-2.78-6.6-2.78s-4.8.94-6.41,2.83-2.42,5-2.42,9.36Z"/>
  <path class="cls-2" d="m231.33.73h13.21v32.22h20.61v10.53h-33.82V.73Z"/>
  <path class="cls-2" d="m294.44.73h13.18v25.47c0,2.52-.39,4.91-1.18,7.15-.79,2.24-2.02,4.21-3.7,5.89-1.68,1.68-3.45,2.86-5.29,3.54-2.57.95-5.65,1.43-9.24,1.43-2.08,0-4.35-.15-6.81-.44-2.46-.29-4.51-.87-6.17-1.73-1.65-.86-3.16-2.09-4.53-3.69-1.37-1.59-2.31-3.23-2.81-4.92-.82-2.72-1.22-5.13-1.22-7.23V.73h13.18v26.07c0,2.33.65,4.15,1.94,5.46,1.29,1.31,3.09,1.97,5.38,1.97s4.06-.65,5.35-1.94,1.94-3.12,1.94-5.49V.73Z"/>
  <path class="cls-2" d="m310.37.73h40.15v10.55h-13.47v32.19h-13.21V11.28h-13.47V.73Z"/>
  <path class="cls-2" d="m354.04.73h13.24v42.74h-13.24V.73Z"/>
  <path class="cls-2" d="m372.1,22.13c0-6.98,1.94-12.41,5.83-16.3,3.89-3.89,9.3-5.83,16.24-5.83s12.6,1.91,16.44,5.73,5.77,9.17,5.77,16.05c0,5-.84,9.09-2.52,12.29-1.68,3.2-4.11,5.69-7.29,7.46-3.18,1.78-7.14,2.67-11.88,2.67s-8.81-.77-11.97-2.3c-3.16-1.54-5.72-3.97-7.68-7.29-1.96-3.32-2.94-7.48-2.94-12.48Zm13.21.06c0,4.31.8,7.42,2.41,9.3s3.79,2.83,6.55,2.83,5.03-.92,6.59-2.77c1.55-1.85,2.33-5.16,2.33-9.94,0-4.02-.81-6.96-2.43-8.82-1.62-1.86-3.83-2.78-6.6-2.78s-4.8.94-6.41,2.83-2.42,5-2.42,9.36Z"/>
  <path class="cls-2" d="m420.61.73h12.33l16.09,23.65V.73h12.45v42.74h-12.45l-16.01-23.47v23.47h-12.42V.73Z"/>
  <path class="cls-2" d="m464.97,29.33l12.57-.79c.27,2.04.83,3.6,1.66,4.67,1.36,1.73,3.3,2.59,5.83,2.59,1.89,0,3.34-.44,4.36-1.33,1.02-.88,1.53-1.91,1.53-3.08s-.49-2.1-1.46-2.97-3.23-1.7-6.76-2.48c-5.79-1.3-9.92-3.03-12.39-5.19-2.49-2.16-3.73-4.91-3.73-8.25,0-2.2.64-4.27,1.91-6.22,1.27-1.95,3.19-3.49,5.74-4.61,2.56-1.12,6.06-1.68,10.51-1.68,5.46,0,9.63,1.02,12.49,3.05s4.57,5.26,5.12,9.69l-12.45.73c-.33-1.92-1.03-3.32-2.08-4.2-1.06-.87-2.52-1.31-4.39-1.31-1.54,0-2.69.33-3.47.98-.78.65-1.17,1.44-1.17,2.38,0,.68.32,1.29.96,1.84.62.56,2.1,1.09,4.43,1.57,5.77,1.24,9.91,2.5,12.41,3.78,2.5,1.27,4.32,2.85,5.45,4.74s1.71,3.99,1.71,6.33c0,2.74-.76,5.27-2.27,7.58-1.52,2.31-3.63,4.07-6.36,5.26-2.72,1.2-6.15,1.79-10.29,1.79-7.27,0-12.3-1.4-15.1-4.2-2.8-2.8-4.38-6.36-4.75-10.67Z"/>
  <text class="cls-3" transform="translate(0 62.48) scale(1.01 1)"><tspan class="cls-6" x="0" y="0">WE SPECALIZE IN</tspan><tspan class="cls-7" x="113.86" y="0"> </tspan><tspan class="cls-8" x="117.75" y="0">T</tspan><tspan class="cls-6" x="124.86" y="0">ALEN</tspan><tspan class="cls-4" x="158.72" y="0">T</tspan><tspan class="cls-5" x="166.49" y="0" xml:space="preserve"> MANAGEMEN</tspan><tspan class="cls-7" x="254.66" y="0">T</tspan><tspan class="cls-9" x="262.42" y="0"> </tspan><tspan class="cls-6" x="265.88" y="0">AND CONSU</tspan><tspan class="cls-1" x="343.49" y="0">L</tspan><tspan class="cls-6" x="349.97" y="0">TING FOR BUSINESSES</tspan></text>
</svg>